<svg width="36" height="36"  viewBox="0 0 48 48" fill="none" xmlns="http://www.w3.org/2000/svg">
<path fill-rule="evenodd" clip-rule="evenodd" d="M23.9231 13.733C21.1192 13.733 18.8462 15.8667 18.8462 18.4988C18.8462 21.1308 21.1192 23.2645 23.9231 23.2645C26.727 23.2645 29 21.1308 29 18.4988C29 15.8667 26.727 13.733 23.9231 13.733ZM17 18.4988C17 14.9096 20.0996 12 23.9231 12C27.7466 12 30.8462 14.9096 30.8462 18.4988C30.8462 22.0879 27.7466 24.9975 23.9231 24.9975C20.0996 24.9975 17 22.0879 17 18.4988Z" fill="white"/>
<path fill-rule="evenodd" clip-rule="evenodd" d="M23.6154 25.733C18.1544 25.733 14.8462 29.6496 14.8462 33.5315C14.8462 34.0101 14.4329 34.398 13.9231 34.398C13.4133 34.398 13 34.0101 13 33.5315C13 28.7484 17.0763 24 23.6154 24C30.1544 24 34.2308 28.7484 34.2308 33.5315C34.2308 34.0101 33.8175 34.398 33.3077 34.398C32.7979 34.398 32.3846 34.0101 32.3846 33.5315C32.3846 29.6496 29.0763 25.733 23.6154 25.733Z" fill="white"/>
<path fill-rule="evenodd" clip-rule="evenodd" d="M48 24C48 37.2548 37.2548 48 24 48C10.7452 48 0 37.2548 0 24C0 10.7452 10.7452 0 24 0C37.2548 0 48 10.7452 48 24ZM24 46.1538C36.2352 46.1538 46.1538 36.2352 46.1538 24C46.1538 11.7648 36.2352 1.84615 24 1.84615C11.7648 1.84615 1.84615 11.7648 1.84615 24C1.84615 36.2352 11.7648 46.1538 24 46.1538Z" fill="white"/>
</svg>
